# xmcd
#
# Track frame offsets:
#	150
#	17775
#	37199
#	54164
#	73172
#	105587
#	124691
#	156093
#	175940
#	194304
#	214825
#
# Disc length: 3087 seconds
#
# Revision: 0
# Processed by: cddbd v1.5.2PL0 Copyright (c) Steve Scherf et al.
# Submitted via: dBpowerAMP V4.0
#
DISCID=980c0d0b
DTITLE=Theodis Ealey - I'm the man you need
DYEAR=1900
DGENRE=Blues
TTITLE0=Sumpin' Sunpin'
TTITLE1=Pop that Middle
TTITLE2=Please, Let me in
TTITLE3=I'm the man you need
TTITLE4=Let's get it on
TTITLE5=Baby, Why
TTITLE6=Looking up at teh bottom
TTITLE7=Stand up in it (remix)
TTITLE8=You and I together
TTITLE9=Theo's Groove
TTITLE10=The reason for the season
EXTD=
EXTT0=
EXTT1=
EXTT2=
EXTT3=
EXTT4=
EXTT5=
EXTT6=
EXTT7=
EXTT8=
EXTT9=
EXTT10=
PLAYORDER=
